<svg version="1.1" id="Layer_1" xmlns="http://www.w3.org/2000/svg" xmlns:xlink="http://www.w3.org/1999/xlink" x="0px" y="0px"
	 width="100%" viewBox="0 0 283 283" enable-background="new 0 0 283 283" xml:space="preserve">
<path fill="#3B3174" opacity="1.000000" stroke="none" 
	d="
M84.000000,1.000000 
	C123.020897,1.000000 162.041794,1.000000 201.613876,1.327337 
	C221.391281,20.852974 240.617508,40.051273 260.595245,60.000000 
	C248.660782,60.000000 238.024719,59.980831 227.388779,60.006004 
	C218.732330,60.026493 209.089966,57.734234 201.696991,60.815548 
	C194.304062,63.896835 188.999664,72.226715 183.132904,78.581863 
	C181.457260,80.396980 180.148178,83.340431 180.131317,85.776596 
	C179.928360,115.092995 179.494217,144.424606 180.266068,173.722092 
	C180.547684,184.411148 178.468140,192.843597 169.512436,198.869247 
	C167.369705,200.310928 164.717148,201.829742 162.278793,201.863846 
	C144.291840,202.115570 126.281990,201.528778 108.317055,202.206055 
	C99.802521,202.527054 93.492546,200.516586 88.044487,193.838104 
	C85.358467,190.545456 83.901039,187.695099 83.910339,183.403198 
	C84.042038,122.602356 84.000000,61.801132 84.000000,1.000000 
z"/>
<path fill="#FFFFFF" opacity="1.000000" stroke="none" 
	d="
M83.531342,1.000000 
	C84.000000,61.801132 84.042038,122.602356 83.910339,183.403198 
	C83.901039,187.695099 85.358467,190.545456 88.044487,193.838104 
	C93.492546,200.516586 99.802521,202.527054 108.317055,202.206055 
	C126.281990,201.528778 144.291840,202.115570 162.278793,201.863846 
	C164.717148,201.829742 167.369705,200.310928 169.512436,198.869247 
	C178.468140,192.843597 180.547684,184.411148 180.266068,173.722092 
	C179.494217,144.424606 179.928360,115.092995 180.131317,85.776596 
	C180.148178,83.340431 181.457260,80.396980 183.132904,78.581863 
	C188.999664,72.226715 194.304062,63.896835 201.696991,60.815548 
	C209.089966,57.734234 218.732330,60.026493 227.388779,60.006004 
	C238.024719,59.980831 248.660782,60.000000 260.595245,60.000000 
	C240.617508,40.051273 221.391281,20.852974 202.082535,1.327337 
	C229.260223,1.000000 256.520447,1.000000 284.000000,1.000000 
	C284.000000,28.020498 284.000000,55.041592 283.712921,82.482048 
	C282.964722,82.562790 282.503571,82.224167 281.915283,81.578751 
	C280.373169,79.865906 278.776733,78.598175 277.578644,77.026756 
	C274.511810,73.004288 270.738312,71.717934 265.588959,71.860252 
	C251.103271,72.260612 236.550278,72.731781 222.118332,71.764618 
	C210.907562,71.013329 202.282608,73.691086 195.435898,82.806839 
	C193.344711,85.591080 191.904205,87.861404 191.915466,91.484573 
	C192.020508,125.308128 191.924637,159.132309 191.610443,193.055817 
	C190.851120,193.756073 190.368301,194.356827 189.578857,195.084595 
	C177.833969,206.769623 166.395706,218.327621 154.679291,229.992950 
	C153.934372,230.455750 153.467606,230.811203 152.537170,231.093628 
	C130.740891,231.013733 109.407730,231.072510 88.076561,230.893402 
	C86.053589,230.876419 83.559799,229.870178 82.106438,228.470093 
	C73.587753,220.263718 65.402924,211.711105 56.896938,203.491074 
	C54.642845,201.312775 53.935764,199.126770 53.942554,196.108551 
	C54.029575,157.443253 54.015392,118.777695 53.992378,80.112221 
	C53.983257,64.783554 53.888882,49.454937 53.904598,33.820236 
	C53.037380,31.363483 52.846493,31.390867 50.578934,34.084530 
	C34.500805,50.102776 18.729313,65.993988 2.634079,81.935448 
	C1.873559,81.990463 1.436779,81.995232 1.000000,82.000000 
	C1.000000,55.072208 1.000000,28.144415 1.000000,1.000000 
	C28.353846,1.000000 55.708263,1.000000 83.531342,1.000000 
z"/>
<path fill="#3B3174" opacity="1.000000" stroke="none" 
	d="
M53.833328,34.126301 
	C53.888882,49.454937 53.983257,64.783554 53.992378,80.112221 
	C54.015392,118.777695 54.029575,157.443253 53.942554,196.108551 
	C53.935764,199.126770 54.642845,201.312775 56.896938,203.491074 
	C65.402924,211.711105 73.587753,220.263718 82.106438,228.470093 
	C83.559799,229.870178 86.053589,230.876419 88.076561,230.893402 
	C109.407730,231.072510 130.740891,231.013733 152.631866,231.341644 
	C153.779312,231.070328 154.368378,230.477966 154.957458,229.885620 
	C166.395706,218.327621 177.833969,206.769623 189.884094,195.078705 
	C190.959625,194.282623 191.423279,193.619461 191.886932,192.956299 
	C191.924637,159.132309 192.020508,125.308128 191.915466,91.484573 
	C191.904205,87.861404 193.344711,85.591080 195.435898,82.806839 
	C202.282608,73.691086 210.907562,71.013329 222.118332,71.764618 
	C236.550278,72.731781 251.103271,72.260612 265.588959,71.860252 
	C270.738312,71.717934 274.511810,73.004288 277.578644,77.026756 
	C278.776733,78.598175 280.373169,79.865906 281.901062,81.948669 
	C282.009216,83.361366 282.004425,84.097351 281.536072,84.906357 
	C260.252197,84.986244 239.431931,84.993202 218.611679,84.999954 
	C211.324814,85.002312 206.000763,90.225227 206.000519,97.379295 
	C205.999390,129.859039 205.940826,162.339035 206.086121,194.818146 
	C206.101654,198.289902 205.048386,200.632660 202.621033,203.002457 
	C192.372375,213.008057 182.325256,223.219772 172.169907,233.321411 
	C156.833328,248.576843 141.467957,263.803345 125.805138,279.120422 
	C125.011017,279.837433 124.526588,280.476105 123.935699,281.399170 
	C123.219490,282.455688 122.609741,283.227844 122.000000,284.000000 
	C109.645775,284.000000 97.291542,284.000000 84.376358,283.701660 
	C83.171982,282.949615 82.528572,282.495880 81.578552,281.915131 
	C68.010292,268.521088 54.727295,255.275269 41.493065,241.980911 
	C28.621990,229.051407 15.800867,216.072189 2.887025,202.810425 
	C2.210825,202.004044 1.605412,201.502029 0.999999,201.000000 
	C1.000000,162.312439 1.000000,123.624878 1.298320,84.376366 
	C2.050366,83.172012 2.504093,82.528603 2.957820,81.885201 
	C18.729313,65.993988 34.500805,50.102776 51.070259,34.112106 
	C52.523258,34.050529 53.178291,34.088417 53.833328,34.126301 
z"/>
<path fill="#3B3174" opacity="1.000000" stroke="none" 
	d="
M284.000000,96.000000 
	C284.000000,131.020889 284.000000,166.041794 283.672668,201.613876 
	C257.068207,228.444016 230.788651,254.720505 204.524170,281.012054 
	C203.605942,281.931274 202.837997,283.000641 202.000000,284.000000 
	C180.645767,284.000000 159.291550,284.000000 137.551178,283.672668 
	C162.822693,257.674744 188.516647,232.040131 214.052124,206.248596 
	C215.666336,204.618179 216.863953,201.770020 216.876785,199.480652 
	C217.057953,167.179703 216.996292,134.877426 217.003281,102.575470 
	C217.004593,96.514534 217.512512,96.006203 223.558701,96.003464 
	C243.705795,95.994347 263.852905,96.000000 284.000000,96.000000 
z"/>
<path fill="#FFFFFF" opacity="1.000000" stroke="none" 
	d="
M202.468658,284.000000 
	C202.837997,283.000641 203.605942,281.931274 204.524170,281.012054 
	C230.788651,254.720505 257.068207,228.444016 283.672668,202.082535 
	C284.000000,229.260223 284.000000,256.520447 284.000000,284.000000 
	C256.979492,284.000000 229.958405,284.000000 202.468658,284.000000 
z"/>
<path fill="#FFFFFF" opacity="1.000000" stroke="none" 
	d="
M2.957813,203.114777 
	C15.800867,216.072189 28.621990,229.051407 41.493065,241.980911 
	C54.727295,255.275269 68.010292,268.521088 81.628815,282.238861 
	C81.990456,283.126404 81.995232,283.563202 82.000000,284.000000 
	C55.073109,284.000000 28.146219,284.000000 1.000000,284.000000 
	C1.000000,257.312836 1.000000,230.625076 1.327613,203.469513 
	C2.089422,203.039413 2.523618,203.077103 2.957813,203.114777 
z"/>
<path fill="#FFFFFF" opacity="1.000000" stroke="none" 
	d="
M284.000000,95.541931 
	C263.852905,96.000000 243.705795,95.994347 223.558701,96.003464 
	C217.512512,96.006203 217.004593,96.514534 217.003281,102.575470 
	C216.996292,134.877426 217.057953,167.179703 216.876785,199.480652 
	C216.863953,201.770020 215.666336,204.618179 214.052124,206.248596 
	C188.516647,232.040131 162.822693,257.674744 137.082520,283.672668 
	C132.310745,284.000000 127.621490,284.000000 122.466110,284.000000 
	C122.609741,283.227844 123.219490,282.455688 124.281586,281.344238 
	C125.194237,280.350677 125.654549,279.696411 126.114838,279.042145 
	C141.467957,263.803345 156.833328,248.576843 172.169907,233.321411 
	C182.325256,223.219772 192.372375,213.008057 202.621033,203.002457 
	C205.048386,200.632660 206.101654,198.289902 206.086121,194.818146 
	C205.940826,162.339035 205.999390,129.859039 206.000519,97.379295 
	C206.000763,90.225227 211.324814,85.002312 218.611679,84.999954 
	C239.431931,84.993202 260.252197,84.986244 281.864105,84.979416 
	C283.103851,84.986305 283.551910,84.993156 284.000000,85.000000 
	C284.000000,88.361290 284.000000,91.722572 284.000000,95.541931 
z"/>
<path fill="#3B3174" opacity="1.000000" stroke="none" 
	d="
M284.000000,84.666687 
	C283.551910,84.993156 283.103851,84.986305 282.327698,84.906395 
	C282.004425,84.097351 282.009216,83.361366 282.028229,82.255463 
	C282.503571,82.224167 282.964722,82.562790 283.712921,82.950706 
	C284.000000,83.444458 284.000000,83.888916 284.000000,84.666687 
z"/>
<path fill="#3B3174" opacity="1.000000" stroke="none" 
	d="
M2.634079,81.935448 
	C2.504093,82.528603 2.050366,83.172012 1.298320,83.907707 
	C1.000000,83.555557 1.000000,83.111107 1.000000,82.333336 
	C1.436779,81.995232 1.873559,81.990463 2.634079,81.935448 
z"/>
<path fill="#3B3174" opacity="1.000000" stroke="none" 
	d="
M2.887026,202.810425 
	C2.523618,203.077103 2.089422,203.039413 1.327613,203.000854 
	C1.000000,202.555557 1.000000,202.111099 0.999999,201.333328 
	C1.605412,201.502029 2.210825,202.004044 2.887026,202.810425 
z"/>
<path fill="#3B3174" opacity="1.000000" stroke="none" 
	d="
M82.333328,284.000000 
	C81.995232,283.563202 81.990456,283.126404 81.935425,282.365875 
	C82.528572,282.495880 83.171982,282.949615 83.907700,283.701660 
	C83.555557,284.000000 83.111107,284.000000 82.333328,284.000000 
z"/>
<path fill="#3B3174" opacity="1.000000" stroke="none" 
	d="
M53.904602,33.820236 
	C53.178291,34.088417 52.523258,34.050529 51.376892,33.985069 
	C52.846493,31.390867 53.037380,31.363483 53.904602,33.820236 
z"/>
<path fill="#3B3174" opacity="1.000000" stroke="none" 
	d="
M191.610443,193.055817 
	C191.423279,193.619461 190.959625,194.282623 190.190735,194.951691 
	C190.368301,194.356827 190.851120,193.756073 191.610443,193.055817 
z"/>
<path fill="#3B3174" opacity="1.000000" stroke="none" 
	d="
M154.679291,229.992950 
	C154.368378,230.477966 153.779312,231.070328 153.095535,231.414673 
	C153.467606,230.811203 153.934372,230.455750 154.679291,229.992950 
z"/>
<path fill="#3B3174" opacity="1.000000" stroke="none" 
	d="
M125.805145,279.120422 
	C125.654549,279.696411 125.194237,280.350677 124.388046,281.059875 
	C124.526588,280.476105 125.011017,279.837433 125.805145,279.120422 
z"/>
</svg>